<svg width="506" height="506" fill="none" xmlns="http://www.w3.org/2000/svg"><path fill="#fff" d="M0 0h506v506H0z"/><path fill="#000" d="M111 104h12v324h-12z"/><path fill="#000" d="M66 418h102v12H66zm51-314h102v12H117z"/><path fill="#000" d="M117 104h102v12H117z"/><path fill="#000" d="M211 104h8v38h-8zm8.31 138.205-5.31-5.984 28.424-25.22 5.31 5.983zm-31 97-5.31-5.984 28.424-25.22 5.31 5.983z"/><path fill="#000" d="m217.933 237.597-5.81 5.5L186 215.499l5.81-5.5z"/><path fill="#000" d="M211 186h8v128h-8z"/><path fill="#000" d="M211 186h8v128h-8z"/><circle cx="215" cy="173" r="26" fill="#fff" stroke="#000" stroke-width="10"/></svg>